<svg width="48" height="48" viewBox="0 0 48 48" fill="none" xmlns="http://www.w3.org/2000/svg">
<path d="M47.3224 5.22206C46.6886 4.58987 45.7628 4.57171 44.7079 4.55102C44.5884 4.54868 44.4672 4.5463 44.3446 4.54299C44.2512 4.54019 44.1481 4.54127 44.0405 4.5424C43.6127 4.54688 43.1122 4.55211 42.86 4.31793C42.5677 4.04642 42.5955 3.52173 42.6183 3.08857C42.6256 2.9517 42.6323 2.82388 42.6283 2.71617C42.5873 1.70995 42.5016 0.641082 41.9053 0.283761C41.4557 0.0156694 40.1106 0.05281 38.87 0.0870625C38.4679 0.0981662 38.0767 0.108966 37.7306 0.108966H11.3256C10.794 0.108966 10.2367 0.0807659 9.68914 0.0530574C8.62218 -0.000934085 7.59215 -0.0530572 6.86069 0.108966C5.79915 0.345258 5.72727 1.58692 5.65959 2.75613L5.65594 2.81904C5.59911 3.78427 5.23191 4.52907 4.01491 4.45405C2.59945 4.3682 1.19099 4.34113 0.551018 5.17565C-0.204805 6.16303 -0.0489246 7.1966 0.230281 9.04788C0.270163 9.31233 0.312563 9.59346 0.355181 9.89352H47.7306C47.7577 9.6742 47.7865 9.45769 47.8149 9.24468C48.0368 7.5791 48.2301 6.1279 47.3224 5.22206Z" fill="#8047F8"/>
<path fill-rule="evenodd" clip-rule="evenodd" d="M4.04464 11.7296C4.78455 18.2531 5.51639 24.7841 6.24823 31.3151L6.24868 31.3191C6.64605 34.8653 7.04342 38.4115 7.44209 41.9565H8.95372C9.05673 42.5114 9.17459 43.1965 9.29885 43.9187C9.5511 45.3849 9.82977 47.0047 10.0641 48H10.2313C11.771 47.633 22.4153 44.6691 22.4201 32.8693C22.4181 32.8357 22.4198 32.802 22.4252 32.7686H19.7954C19.6681 32.7679 19.5447 32.7402 19.4442 32.6898C19.3437 32.6395 19.2717 32.5693 19.2392 32.49C18.9829 32.0776 18.7763 31.6532 18.6212 31.2204C17.0741 31.7896 15.8456 32.6587 15.1106 33.7039C14.413 32.6334 14.3217 31.4391 14.8527 30.3297C15.3836 29.2203 16.5031 28.2662 18.0155 27.6344C18.035 24.1912 20.014 20.872 23.5779 18.3052L23.6335 18.2733C23.7371 18.215 23.8697 18.1825 24.0073 18.1818C24.0868 18.1822 24.1654 18.1933 24.2379 18.2143C24.3114 18.2356 24.3771 18.2665 24.4308 18.3052C28.0364 20.8755 30.0049 24.2266 29.9438 27.6901C31.4844 28.3044 32.6267 29.2577 33.1586 30.3731C33.6905 31.4886 33.576 32.6905 32.8363 33.7557C32.1053 32.7088 30.8758 31.8389 29.3258 31.2721C29.2311 31.6916 29.0567 32.1019 28.8066 32.494C28.7201 32.6612 28.547 32.7686 28.374 32.7686H25.5695C25.5739 32.7886 25.577 32.8088 25.5788 32.8289L25.5799 32.8336V32.8433C25.5809 32.8607 25.5809 32.8781 25.58 32.8955C25.6184 45.0341 36.9356 47.7893 37.8896 48H38.2159C38.2992 47.0439 38.5704 45.7247 38.8347 44.4385C39.0169 43.5522 39.1958 42.6816 39.3078 41.9565H40.837C41.3264 37.4912 41.8298 33.0383 42.3332 28.5854L42.3334 28.583L42.3336 28.5817C42.9775 22.8859 43.6214 17.1899 44.2362 11.4674H4.14256C4.02715 11.4821 4.03502 11.6051 4.04464 11.7296ZM24.0073 18.1818L24.0044 18.1818H24.0105L24.0073 18.1818Z" fill="#8047F8"/>
</svg>
